<?xml version="1.0" standalone="no"?>
<!DOCTYPE svg PUBLIC "-//W3C//DTD SVG 20010904//EN"
 "http://www.w3.org/TR/2001/REC-SVG-20010904/DTD/svg10.dtd">
<svg version="1.0" xmlns="http://www.w3.org/2000/svg"
 width="512.000000pt" height="512.000000pt" viewBox="0 0 512.000000 512.000000"
 preserveAspectRatio="xMidYMid meet">
<metadata>
Created by potrace 1.14, written by Peter Selinger 2001-2017
</metadata>
<g transform="translate(0.000000,512.000000) scale(0.100000,-0.100000)"
fill="#000000" stroke="none">
<path d="M2426 4740 c-15 -5 -36 -15 -45 -22 -9 -8 -28 -19 -44 -26 -15 -6
-32 -24 -38 -39 -27 -68 -86 -196 -198 -430 -67 -139 -121 -257 -121 -263 0
-5 -33 -78 -74 -162 -84 -173 -256 -554 -256 -568 0 -10 -10 -32 -105 -240
-77 -169 -114 -252 -199 -457 -13 -32 -42 -99 -65 -148 -23 -50 -41 -96 -41
-103 0 -7 -9 -30 -20 -51 -17 -35 -34 -77 -60 -151 -5 -14 -18 -50 -30 -80
-12 -30 -25 -66 -30 -80 -5 -14 -18 -50 -30 -80 -12 -30 -28 -75 -35 -100 -7
-25 -23 -70 -35 -100 -12 -30 -28 -75 -35 -100 -7 -25 -23 -70 -35 -100 -44
-115 -52 -137 -70 -200 -18 -61 -30 -101 -67 -210 -37 -113 -38 -116 -20 -144
21 -31 60 -43 93 -27 27 12 64 87 84 171 7 30 17 64 23 75 6 11 18 49 28 85 9
36 27 90 39 120 41 106 51 135 65 180 7 25 23 70 35 100 12 30 28 75 35 100 7
25 23 70 35 100 29 75 49 130 60 160 5 14 18 50 30 80 12 30 25 66 29 80 5 14
18 44 30 67 11 23 21 48 21 55 0 7 18 53 41 103 23 49 52 116 65 148 86 207
123 291 199 457 29 63 64 142 78 175 100 240 100 241 109 207 16 -61 36 -65
241 -58 864 32 1088 54 1295 130 101 38 239 119 326 192 48 41 133 164 146
213 19 72 23 203 7 262 -52 198 -350 437 -667 534 -77 24 -144 46 -180 61
-116 46 -545 105 -614 84z m259 -166 c186 -25 232 -33 277 -49 23 -9 63 -23
88 -30 292 -90 450 -174 580 -309 112 -116 126 -149 115 -277 -6 -69 -12 -86
-44 -133 -80 -117 -236 -214 -436 -272 -138 -40 -450 -64 -1164 -90 -179 -6
-185 -8 -209 -31 -14 -14 -22 -19 -19 -11 22 56 111 249 173 376 41 84 74 157
74 162 0 6 53 122 119 258 65 136 136 286 157 334 22 48 46 89 54 91 20 5 102
-2 235 -19z"/>
<path d="M3681 3443 c-15 -12 -30 -48 -46 -108 -26 -99 -48 -162 -72 -208 -8
-17 -19 -42 -23 -56 -5 -14 -18 -51 -30 -81 -12 -30 -28 -75 -35 -100 -14 -49
-43 -125 -68 -180 -15 -34 -32 -83 -62 -180 -23 -74 -46 -143 -61 -182 -8 -21
-21 -57 -30 -80 -9 -24 -26 -68 -39 -98 -13 -30 -31 -75 -40 -100 -9 -25 -27
-70 -40 -100 -23 -54 -42 -108 -70 -200 -7 -25 -23 -70 -35 -100 -12 -30 -25
-66 -30 -80 -5 -14 -18 -50 -30 -80 -12 -30 -27 -75 -34 -100 -7 -25 -20 -59
-29 -76 -18 -36 -42 -97 -62 -164 -24 -77 -44 -129 -80 -200 -19 -38 -35 -79
-35 -91 0 -29 53 -79 85 -79 29 0 75 40 75 66 0 10 23 63 50 118 43 87 64 116
148 201 164 168 323 262 522 310 30 7 73 20 95 28 22 8 63 17 92 20 50 6 54 4
87 -29 20 -20 40 -52 45 -72 5 -21 18 -66 27 -102 28 -100 26 -378 -3 -480
-11 -41 -24 -101 -28 -132 -6 -53 -4 -60 19 -83 52 -52 119 -16 131 71 4 27
16 85 28 129 17 66 21 110 22 255 0 161 -2 184 -29 290 -30 118 -56 183 -79
197 -7 4 -26 25 -41 46 -40 52 -106 71 -204 57 -39 -5 -90 -17 -114 -26 -24
-9 -63 -19 -88 -24 -25 -4 -70 -18 -100 -30 -30 -12 -66 -25 -80 -29 -37 -12
-149 -71 -155 -82 -4 -5 -40 -32 -81 -60 -58 -39 -73 -45 -64 -28 7 12 16 34
20 48 5 14 18 51 30 81 42 109 52 136 65 180 30 96 47 147 70 200 13 30 31 75
40 100 9 25 27 70 40 100 22 52 42 103 70 180 15 38 38 110 60 180 30 97 47
146 62 180 25 55 54 131 68 180 7 25 23 70 35 100 12 30 25 67 30 81 4 14 15
39 23 56 33 62 96 271 97 316 0 26 -45 67 -73 67 -14 0 -34 -8 -46 -17z"/>
</g>
</svg>
